<?xml version="1.0" encoding="utf-8"?>
<!-- Generator: Adobe Illustrator 27.6.0, SVG Export Plug-In . SVG Version: 6.00 Build 0)  -->
<svg version="1.1" id="Layer_1" xmlns="http://www.w3.org/2000/svg" xmlns:xlink="http://www.w3.org/1999/xlink" x="0px" y="0px"
	 viewBox="0 0 717 199" style="enable-background:new 0 0 717 199;" xml:space="preserve">
<style type="text/css">
	.st0{fill:#FFFFFF;}
</style>
<g>
	<path class="st0" d="M6.1,36.5c-3.2,0-5.8,10.4-5.8,23.2s2.6,23.2,5.8,23.2s5.8-10.4,5.8-23.2S9.3,36.5,6.1,36.5z"/>
	<path class="st0" d="M176.2,12.9c-3,0-5.7,6.7-7.6,17.3c-3-18.3-7.9-30.2-13.4-30.2c-6.6,0-12.2,16.8-14.9,41.3
		c-2.6-17.8-6.6-29.1-11.1-29.1c-6.3,0-11.6,22.3-13.6,53.4c-3.7-16-9.1-26-15-26c-5.9,0-11.3,10-15,26c-2-31.1-7.3-53.4-13.6-53.4
		c-4.5,0-8.5,11.3-11.1,29.1C58.3,16.8,52.6,0,46.1,0c-5.5,0-10.4,11.9-13.4,30.2c-1.9-10.6-4.6-17.3-7.6-17.3
		c-5.6,0-10.2,23.2-10.2,51.8s4.6,51.8,10.2,51.8c2.3,0,4.5-3.9,6.2-10.5c2.7,24.2,8.3,40.8,14.9,40.8c5.1,0,9.6-10,12.6-25.7
		c2.1,29.9,7.3,51.1,13.4,51.1c3.8,0,7.3-8.4,9.9-22.1c3.1,28.3,10.3,48.1,18.7,48.1c8.4,0,15.5-19.8,18.7-48.1
		c2.6,13.7,6.1,22.1,9.9,22.1c6.1,0,11.3-21.2,13.4-51.1c3,15.7,7.6,25.7,12.6,25.7c6.5,0,12.1-16.6,14.9-40.8
		c1.7,6.6,3.8,10.5,6.2,10.5c5.6,0,10.2-23.2,10.2-51.8S181.8,12.9,176.2,12.9L176.2,12.9z"/>
	<path class="st0" d="M195.2,36.5c-3.2,0-5.8,10.4-5.8,23.2s2.6,23.2,5.8,23.2c3.2,0,5.8-10.4,5.8-23.2S198.4,36.5,195.2,36.5z"/>
</g>
<g>
	<path class="st0" d="M341.9,128.2h65.2v-21.4h-34.5V97h32.4V79.5h-32.4v-9.2h34.5V48.9h-65.2V128.2z"/>
	<path class="st0" d="M414.5,128.2h65.2v-21.4h-34.5V97h32.4V79.5h-32.4v-9.2h34.5V48.9h-65.2V128.2z"/>
	<path class="st0" d="M716.6,128.2c-4.4-12.1-10.7-25-19-39.5c9.8-2.9,15.6-9,15.6-18.5c0-14.4-13.3-21.2-34.3-21.2h-43.2v79.2h30.9
		V95.4c6.9,11.6,11.9,22.5,15.2,32.8H716.6z M666.6,84.3v-14h10.7c4.5,0,7.1,2.5,7.1,7s-2.6,7-7.1,7H666.6z"/>
	<path class="st0" d="M563,128.2h65.2v-21.4h-34.5V97h32.4V79.5h-32.4v-9.2h34.5V48.9H563V128.2z"/>
	<path class="st0" d="M487.2,70.3H519c-13.2,10.8-24.1,23.1-32.5,36.4v21.4h70.1v-21.4h-35c8-11.7,19.2-23.3,35-36.4V48.9h-69.5
		V70.3z"/>
	<path class="st0" d="M295.2,48.9h-39.7v79.2h39.7c24.6,0,42-16.4,42-39.6C337.1,65.3,319.7,48.9,295.2,48.9z M293.5,106.7h-7.2
		V70.3h7.2c7.7,0,11.8,5.1,11.8,18.2C305.3,101.6,301.2,106.7,293.5,106.7z"/>
</g>
</svg>
