<?xml version="1.0" encoding="UTF-8" standalone="no"?>
<svg
   xmlns:dc="http://purl.org/dc/elements/1.1/"
   xmlns:cc="http://creativecommons.org/ns#"
   xmlns:rdf="http://www.w3.org/1999/02/22-rdf-syntax-ns#"
   xmlns:svg="http://www.w3.org/2000/svg"
   xmlns="http://www.w3.org/2000/svg"
   viewBox="0 0 188.97333 41.959999"
   height="41.959999"
   width="188.97333"
   xml:space="preserve"
   id="svg2"
   version="1.1"><metadata
     id="metadata8"><rdf:RDF><cc:Work
         rdf:about=""><dc:format>image/svg+xml</dc:format><dc:type
           rdf:resource="http://purl.org/dc/dcmitype/StillImage" /></cc:Work></rdf:RDF></metadata><defs
     id="defs6" /><g
     transform="matrix(1.3333333,0,0,-1.3333333,0,41.96)"
     id="g10"><g
       transform="scale(0.1)"
       id="g12"><path
         id="path14"
         style="fill:#ed1c24;fill-opacity:1;fill-rule:nonzero;stroke:none"
         d="M 0,0.0195313 H 93.543 V 28.367231 H 0 Z" /><path
         id="path16"
         style="fill:#ed1c24;fill-opacity:1;fill-rule:nonzero;stroke:none"
         d="M 0,36.8633 H 93.543 V 65.2149 H 0 Z" /><path
         id="path18"
         style="fill:#ed1c24;fill-opacity:1;fill-rule:nonzero;stroke:none"
         d="m 0,73.7109 h 93.543 v 28.3516 H 0 Z" /><path
         id="path20"
         style="fill:#f6836c;fill-opacity:1;fill-rule:nonzero;stroke:none"
         d="m 0,110.566 h 93.543 v 28.3398 H 0 Z" /><path
         id="path22"
         style="fill:#f6836c;fill-opacity:1;fill-rule:nonzero;stroke:none"
         d="m 0,147.422 h 93.543 v 28.3398 H 0 Z" /><path
         id="path24"
         style="fill:#fff200;fill-opacity:1;fill-rule:nonzero;stroke:none"
         d="m 104.883,0.0195313 h 93.5469 V 28.367231 H 104.883 Z" /><path
         id="path26"
         style="fill:#fff200;fill-opacity:1;fill-rule:nonzero;stroke:none"
         d="m 104.883,36.8633 h 93.5469 V 65.2149 H 104.883 Z" /><path
         id="path28"
         style="fill:#fff200;fill-opacity:1;fill-rule:nonzero;stroke:none"
         d="m 104.883,73.7109 h 93.5469 v 28.3516 H 104.883 Z" /><path
         id="path30"
         style="fill:#ec008c;fill-opacity:1;fill-rule:nonzero;stroke:none"
         d="m 209.766,0.0195313 h 93.5469 V 28.367231 H 209.766 Z" /><path
         id="path32"
         style="fill:#ec008c;fill-opacity:1;fill-rule:nonzero;stroke:none"
         d="m 209.766,36.8633 h 93.5469 V 65.2149 H 209.766 Z" /><path
         id="path34"
         style="fill:#ec008c;fill-opacity:1;fill-rule:nonzero;stroke:none"
         d="m 209.766,73.7109 h 93.5469 v 28.3516 H 209.766 Z" /><path
         id="path36"
         style="fill:#f680c5;fill-opacity:1;fill-rule:nonzero;stroke:none"
         d="m 209.766,110.566 h 93.5469 v 28.3398 H 209.766 Z" /><path
         id="path38"
         style="fill:#f680c5;fill-opacity:1;fill-rule:nonzero;stroke:none"
         d="m 209.766,147.422 h 93.5469 v 28.3398 H 209.766 Z" /><path
         id="path40"
         style="fill:#f680c5;fill-opacity:1;fill-rule:nonzero;stroke:none"
         d="m 209.766,184.27 h 93.5469 v 28.3477 H 209.766 Z" /><path
         id="path42"
         style="fill:#f680c5;fill-opacity:1;fill-rule:nonzero;stroke:none"
         d="m 209.766,221.113 h 93.5469 v 28.3516 H 209.766 Z" /><path
         id="path44"
         style="fill:#b2db18;fill-opacity:1;fill-rule:nonzero;stroke:none"
         d="m 314.648,0.0195313 h 93.543 V 28.367231 h -93.543 z" /><path
         id="path46"
         style="fill:#b2db18;fill-opacity:1;fill-rule:nonzero;stroke:none"
         d="m 314.648,36.8633 h 93.543 v 28.3516 h -93.543 z" /><path
         id="path48"
         style="fill:#b2db18;fill-opacity:1;fill-rule:nonzero;stroke:none"
         d="m 314.648,73.7109 h 93.543 v 28.3516 h -93.543 z" /><path
         id="path50"
         style="fill:#d9ed84;fill-opacity:1;fill-rule:nonzero;stroke:none"
         d="m 314.648,110.566 h 93.543 v 28.3398 h -93.543 z" /><path
         id="path52"
         style="fill:#d9ed84;fill-opacity:1;fill-rule:nonzero;stroke:none"
         d="m 314.648,147.422 h 93.543 v 28.3398 h -93.543 z" /><path
         id="path54"
         style="fill:#59caf5;fill-opacity:1;fill-rule:nonzero;stroke:none"
         d="m 419.531,0.0195313 h 93.5508 V 28.367231 H 419.531 Z" /><path
         id="path56"
         style="fill:#59caf5;fill-opacity:1;fill-rule:nonzero;stroke:none"
         d="m 419.531,36.8633 h 93.5508 V 65.2149 H 419.531 Z" /><path
         id="path58"
         style="fill:#59caf5;fill-opacity:1;fill-rule:nonzero;stroke:none"
         d="m 419.531,73.7227 h 93.5508 v 28.3477 H 419.531 Z" /><path
         id="path60"
         style="fill:#b2e6fa;fill-opacity:1;fill-rule:nonzero;stroke:none"
         d="m 419.531,110.566 h 93.5508 v 28.3516 H 419.531 Z" /><path
         id="path62"
         style="fill:#b2e6fa;fill-opacity:1;fill-rule:nonzero;stroke:none"
         d="m 419.531,147.422 h 93.5508 v 28.3516 H 419.531 Z" /><path
         id="path64"
         style="fill:#b2e6fa;fill-opacity:1;fill-rule:nonzero;stroke:none"
         d="m 419.531,184.277 h 93.5508 v 28.3398 H 419.531 Z" /><path
         id="path66"
         style="fill:#b2e6fa;fill-opacity:1;fill-rule:nonzero;stroke:none"
         d="m 419.531,221.133 h 93.5508 v 28.3398 H 419.531 Z" /><path
         id="path68"
         style="fill:#b2e6fa;fill-opacity:1;fill-rule:nonzero;stroke:none"
         d="m 419.531,257.98 h 93.5508 v 28.3477 H 419.531 Z" /><path
         id="path70"
         style="fill:#231f20;fill-opacity:1;fill-rule:nonzero;stroke:none"
         d="m 592.426,36.6328 h 21.972 c 32.258,0 37.54,17 37.54,71.0432 v 108.066 c 0,46.641 -3.993,62.324 -41.016,62.324 H 592.426 Z M 549.922,314.668 h 70.137 c 70.601,0 77.265,-24.707 77.265,-116.23 V 104.902 C 697.324,24.2773 681.109,0.0195313 612.273,0.0195313 H 549.922 V 314.668" /><path
         id="path72"
         style="fill:#231f20;fill-opacity:1;fill-rule:nonzero;stroke:none"
         d="m 714.316,314.668 h 119.059 v -37.402 h -76.539 v -98.661 h 70.863 V 141.746 H 756.836 V 37.3945 h 76.539 V 0.0195313 H 714.316 V 314.668" /><path
         id="path74"
         style="fill:#231f20;fill-opacity:1;fill-rule:nonzero;stroke:none"
         d="m 850.387,314.668 h 119.051 v -37.402 h -76.532 v -98.661 h 70.867 V 141.746 H 892.906 V 37.3945 h 76.532 V 0.0195313 H 850.387 V 314.668" /><path
         id="path76"
         style="fill:#231f20;fill-opacity:1;fill-rule:nonzero;stroke:none"
         d="m 1142.34,314.668 h 119.06 v -37.402 h -76.54 v -98.661 h 70.88 v -36.859 h -70.88 V 37.3945 h 76.54 V 0.0195313 H 1142.34 V 314.668" /><path
         id="path78"
         style="fill:#231f20;fill-opacity:1;fill-rule:nonzero;stroke:none"
         d="M 986.441,36.8555 1084.4,277.805 h -97.959 v 36.843 H 1125.33 V 277.805 L 1029.06,36.8555 h 96.27 V 0 L 986.441,0.0195313 V 36.8555" /><path
         id="path80"
         style="fill:#231f20;fill-opacity:1;fill-rule:nonzero;stroke:none"
         d="m 1320.93,175.762 h 13.19 c 34.43,0 39.68,4.25 39.68,51.308 0,46.641 -4.18,50.754 -31.17,50.754 h -21.7 z m -42.52,138.886 h 68.03 c 63.63,0 68.09,-16.21 68.09,-85.066 0,-42.258 -3.99,-62.922 -39.73,-73.809 v 0 c 29.63,-3.046 39.78,-18.515 39.78,-48.136 V 39.2188 c 0,-11.3477 0.08,-26.1211 2.74,-39.1992687 H 1374.8 C 1370.42,7.87109 1371.99,15.5977 1371.99,28.2422 v 71.0273 c 0,29.6365 -5.63,36.8045 -34.4,36.8045 h -16.66 V 0 l -42.52,0.0195313 V 314.648" /></g></g></svg>
